<svg width="202" height="102" viewBox="0 0 202 102" fill="none" xmlns="http://www.w3.org/2000/svg">
<path d="M2.84967 88.05C16.7997 67.49 35.6997 50.16 57.5397 38.28C68.6897 32.22 81.3997 27.51 94.2697 28.24C105.81 28.89 116.32 34.67 122.77 44.31C128.94 53.55 130.68 64.97 127.04 75.52C125.25 80.7 122.28 85.49 118.45 89.41C114.63 93.33 109.48 97.09 104.02 98.22C101.21 98.8 98.5097 98.02 96.8397 95.62C95.2497 93.33 94.8597 90.45 95.3797 87.75C95.9997 84.57 97.5797 81.69 99.2397 78.94C100.77 76.41 102.39 73.93 104.08 71.51C110.58 62.19 118.25 53.69 126.78 46.18C144.02 30.98 164.89 19.87 187.19 14.28C189.92 13.6 192.66 13 195.43 12.48C197.32 12.12 196.52 9.23002 194.63 9.59002C170.67 14.1 148.09 24.88 129.19 40.23C119.77 47.88 111.32 56.7 104.07 66.43C100.35 71.42 96.4797 76.75 93.9697 82.47C91.6097 87.87 91.1397 94.96 96.0497 99.19C101.16 103.59 108.19 100.54 113.16 97.49C118.17 94.41 122.41 90.15 125.61 85.23C132 75.39 133.79 63.04 129.89 51.92C126.03 40.92 117.46 31.76 106.47 27.71C93.7297 23 79.6097 25.44 67.3197 30.36C55.0197 35.29 43.6397 42.61 33.2997 50.84C23.0397 59 13.8197 68.42 5.82967 78.81C3.89967 81.33 2.03967 83.9 0.259673 86.53C-0.830327 88.13 1.76967 89.64 2.84967 88.05Z" fill="black"/>
<path d="M184.599 2.81001C189.339 6.25001 194.079 9.69001 198.819 13.14C198.939 12.23 199.059 11.31 199.179 10.4C193.389 11.56 188.579 15.21 184.299 19.09C182.869 20.39 184.989 22.51 186.419 21.21C190.339 17.65 194.679 14.35 199.979 13.29C201.369 13.01 201.289 11.24 200.339 10.55C195.599 7.11001 190.859 3.67001 186.119 0.220011C185.459 -0.259989 184.449 0.110011 184.069 0.760011C183.619 1.51001 183.939 2.33001 184.599 2.81001Z" fill="black"/>
</svg>
