<svg width="166" height="209" viewBox="0 0 166 209" fill="none" xmlns="http://www.w3.org/2000/svg">
<path fill-rule="evenodd" clip-rule="evenodd" d="M148.112 79.2506C153.099 65.1865 156.778 50.6737 159.121 35.9319C159.392 34.2462 162.035 34.6144 161.767 36.2921C161.155 40.1158 160.467 43.916 159.678 47.7018C156.462 63.2334 151.75 78.4573 145.628 93.0832C142.566 100.41 139.152 107.585 135.389 114.581C132.234 120.461 128.905 126.294 125.006 131.717C118.573 140.656 110.13 149.423 99.3246 152.833C97.5176 153.402 95.6555 153.812 93.773 154.043C92.1338 156.785 90.3537 159.443 88.4398 162.002C80.6813 172.375 70.1947 182.42 57.3022 185.836C51.6659 187.329 45.816 187.429 40.2223 185.654C35.1727 184.055 30.5928 181.029 26.9158 177.236C19.5197 169.613 15.3918 158.502 18.0013 148.02C18.0168 147.958 18.0355 147.898 18.0572 147.842C15.2551 152.623 11.6074 156.888 7.28702 160.427C5.96483 161.515 4.38037 159.366 5.69906 158.286C11.6956 153.372 16.2571 146.952 18.9816 139.711C19.5051 138.317 21.8816 138.966 21.5333 140.425C20.3635 145.319 21.7466 150.678 25.3793 154.259C26.5925 155.447 24.9385 157.53 23.7124 156.326C22.2032 154.842 20.9834 153.106 20.0984 151.224C19.9041 152.645 19.828 154.081 19.8886 155.515C20.3145 165.387 26.1699 174.649 34.42 180C38.5118 182.651 43.3266 184.254 48.2165 184.357C54.0359 184.485 59.7575 182.682 64.8358 179.965C70.1266 177.136 74.8641 173.231 79.0247 168.932C83.3499 164.463 87.2187 159.532 90.5189 154.258C87.7721 154.285 85.0243 153.91 82.3812 153.076C76.1836 151.127 71.1217 146.476 69.7808 140.008C68.4632 133.666 70.6785 126.976 73.6341 121.425C76.9377 115.225 81.5878 109.768 87.2234 105.556C89.8712 103.574 92.9045 101.44 96.2108 100.764C99.092 100.175 101.969 101.281 103.782 103.576C107.645 108.442 106.677 115.611 105.77 121.245C104.081 131.678 100.568 141.794 95.4867 151.052C100.224 150.031 104.79 147.822 108.59 145.057C117.521 138.554 124.007 129.243 129.45 119.79C136.888 106.879 143.134 93.2903 148.112 79.2506ZM92.1377 151.565C95.5132 145.719 98.2387 139.501 100.251 133.056C101.301 129.7 102.135 126.281 102.772 122.825C103.36 119.685 103.971 116.401 103.898 113.198C103.842 110.629 103.45 107.761 101.956 105.584C100.353 103.254 97.7766 102.799 95.2188 103.807C92.2371 104.989 89.4795 107.068 87.0255 109.095C84.4465 111.232 82.1314 113.656 80.0885 116.303C73.2902 125.124 66.8108 141.051 78.9157 148.612C83.0101 151.171 87.588 151.973 92.1377 151.565ZM18.7482 147.097C18.7252 146.978 18.7034 146.859 18.6828 146.74C18.5506 146.98 18.4164 147.219 18.28 147.457C18.4107 147.299 18.5718 147.18 18.7482 147.097Z" fill="#F4F4F4"/>
</svg>
