<svg width="165" height="163" viewBox="0 0 165 163" fill="none" xmlns="http://www.w3.org/2000/svg">
<path d="M88.8713 137.291C89.7576 142.403 87.968 147.838 84.0298 151.269C82.719 152.41 84.1226 154.515 85.6165 153.511C92.2624 149.039 99.9925 146.411 107.985 145.866C109.75 145.747 109.475 143.014 107.709 143.133C99.2518 143.712 91.0603 146.543 84.0298 151.269C84.5544 152.016 85.0919 152.763 85.6165 153.511C90.2794 149.454 92.6716 143.151 91.604 137.015C91.3055 135.281 88.5715 135.544 88.8713 137.291Z" fill="#F4F4F4"/>
<path d="M92.8074 147.923C106.901 130.917 114.996 108.844 115.666 86.8097C116.306 65.7095 109.658 44.6407 97.2545 27.5765C89.7851 17.2873 80.4102 8.50532 70.2055 0.985381C68.7854 -0.0564174 67.0396 2.06618 68.4669 3.11378C85.5988 15.7365 99.9748 32.0225 107.311 52.2341C114.596 72.3208 114.662 94.2223 108.006 114.49C104.218 126.005 98.4303 136.855 90.6861 146.191C89.5533 147.548 91.6759 149.294 92.8074 147.923Z" fill="#F4F4F4"/>
</svg>
