<svg width="202" height="102" viewBox="0 0 202 102" fill="none" xmlns="http://www.w3.org/2000/svg">
<g clip-path="url(#clip0)">
<path d="M2.84967 88.0501C16.7997 67.4901 35.6997 50.16 57.5397 38.2801C68.6897 32.2201 81.3997 27.5101 94.2697 28.2401C105.81 28.8901 116.32 34.6701 122.77 44.3101C128.94 53.5501 130.68 64.9701 127.04 75.5201C125.25 80.7001 122.28 85.4901 118.45 89.4101C114.63 93.3301 109.48 97.0901 104.02 98.2201C101.21 98.8001 98.5097 98.0201 96.8397 95.6201C95.2497 93.3301 94.8597 90.4501 95.3797 87.7501C95.9997 84.5701 97.5797 81.6901 99.2397 78.9401C100.77 76.4101 102.39 73.9301 104.08 71.5101C110.58 62.1901 118.25 53.6901 126.78 46.1801C144.02 30.9801 164.89 19.8701 187.19 14.2801C189.92 13.6001 192.66 13.0001 195.43 12.4801C197.32 12.1201 196.52 9.23005 194.63 9.59005C170.67 14.1001 148.09 24.8801 129.19 40.2301C119.77 47.8801 111.32 56.7001 104.07 66.4301C100.35 71.4201 96.4797 76.7501 93.9697 82.4701C91.6097 87.8701 91.1397 94.9601 96.0497 99.1901C101.16 103.59 108.19 100.54 113.16 97.4901C118.17 94.41 122.41 90.1501 125.61 85.2301C132 75.3901 133.79 63.0401 129.89 51.9201C126.03 40.9201 117.46 31.7601 106.47 27.7101C93.7297 23.0001 79.6097 25.4401 67.3197 30.3601C55.0197 35.2901 43.6397 42.6101 33.2997 50.8401C23.0397 59.0001 13.8197 68.4201 5.82967 78.8101C3.89967 81.33 2.03967 83.9001 0.259673 86.5301C-0.830327 88.1301 1.76967 89.6401 2.84967 88.0501Z" fill="white"/>
<path d="M184.599 2.8101C189.339 6.2501 194.079 9.6901 198.819 13.1401C198.939 12.2301 199.059 11.3101 199.179 10.4001C193.389 11.5601 188.579 15.2101 184.299 19.0901C182.869 20.3901 184.989 22.5101 186.419 21.2101C190.339 17.6501 194.679 14.3501 199.979 13.2901C201.369 13.0101 201.289 11.2401 200.339 10.5501C195.599 7.1101 190.859 3.6701 186.119 0.220102C185.459 -0.259898 184.449 0.110102 184.069 0.760102C183.619 1.5101 183.939 2.3301 184.599 2.8101Z" fill="white"/>
</g>
<defs>
<clipPath id="clip0">
<rect width="201.04" height="101.39" fill="white"/>
</clipPath>
</defs>
</svg>
