<svg width="158" height="156" viewBox="0 0 158 156" fill="none" xmlns="http://www.w3.org/2000/svg">
<path d="M85.2652 131.761C86.1138 136.667 84.3943 141.882 80.6137 145.173C79.3553 146.267 80.7014 148.288 82.1355 147.325C88.515 143.036 95.9343 140.517 103.604 139.997C105.298 139.884 105.035 137.261 103.341 137.375C95.2245 137.927 87.3623 140.641 80.6137 145.173C81.1168 145.891 81.6324 146.607 82.1355 147.325C86.6118 143.434 88.91 137.386 87.8878 131.497C87.602 129.833 84.9782 130.084 85.2652 131.761Z" fill="#151412"/>
<path d="M89.0395 141.966C102.571 125.651 110.348 104.471 111 83.3262C111.622 63.0773 105.25 42.8558 93.3537 26.4751C86.1896 16.5981 77.1963 8.16679 67.4061 0.946243C66.0436 -0.054083 64.3675 1.98222 65.7367 2.98812C82.1727 15.1083 95.9625 30.7429 102.995 50.1421C109.979 69.4213 110.033 90.4394 103.638 109.887C99.9988 120.936 94.4399 131.346 87.0044 140.302C85.9169 141.605 87.9532 143.281 89.0395 141.966Z" fill="#151412"/>
</svg>
